<?xml version="1.0" encoding="UTF-8"?>
<svg version="1.1" xmlns="http://www.w3.org/2000/svg" width="410" height="130">
<path d="M0 0 C7.26 0 14.52 0 22 0 C22.03738281 3.61195312 22.07476562 7.22390625 22.11328125 10.9453125 C22.15951539 14.45025631 22.21074234 17.95509413 22.26245117 21.45996094 C22.29566947 23.8925124 22.32371099 26.32514037 22.34643555 28.7578125 C22.38003758 32.25814358 22.43235834 35.75777555 22.48828125 39.2578125 C22.49467117 40.34240753 22.5010611 41.42700256 22.50764465 42.54446411 C22.6149935 48.07946999 22.81990009 52.2502764 26 57 C28.66449395 59.18869145 30.06046401 58.99787846 33.5625 58.875 C36.99615105 58.30367102 36.99615105 58.30367102 38.875 56.1875 C40.78774732 52.4682691 41.13194818 49.10693133 41.20532227 44.95605469 C41.22526749 43.95531921 41.24521271 42.95458374 41.26576233 41.92352295 C41.28247482 40.85047913 41.29918732 39.7774353 41.31640625 38.671875 C41.33718735 37.56773254 41.35796844 36.46359009 41.37937927 35.32598877 C41.44473646 31.80072217 41.50369564 28.27538141 41.5625 24.75 C41.60569836 22.35936735 41.64931307 19.96874218 41.69335938 17.578125 C41.80118677 11.71882489 41.9003636 5.85946806 42 0 C49.26 0 56.52 0 64 0 C64.09080596 7.38951001 64.16400435 14.77870895 64.20724869 22.16866112 C64.22801657 25.60109768 64.25613212 29.03312875 64.30175781 32.46533203 C64.35402097 36.42214908 64.37303456 40.37880889 64.390625 44.3359375 C64.41127014 45.55300385 64.43191528 46.77007019 64.45318604 48.02401733 C64.45546547 56.77926114 62.74172537 63.25470609 58.375 70.8125 C48.73007408 79.6959844 36.61894324 79.66894811 24.27880859 79.18359375 C16.73345768 78.57569747 10.1288637 75.50414641 5 70 C1.39205505 64.16909541 -0.12843209 59.07876311 -0.11352539 52.22167969 C-0.11344986 51.0607782 -0.11337433 49.89987671 -0.11329651 48.70379639 C-0.10813522 47.45576233 -0.10297394 46.20772827 -0.09765625 44.921875 C-0.0962413 43.64016418 -0.09482635 42.35845337 -0.09336853 41.03790283 C-0.08955901 37.6381636 -0.07974214 34.2384674 -0.06866455 30.83874512 C-0.05841674 27.366461 -0.0538637 23.8941699 -0.04882812 20.421875 C-0.03811841 13.61456392 -0.02053433 6.80728846 0 0 Z " fill="#333132" transform="translate(217,25)"/>
<path d="M0 0 C18.15 0 36.3 0 55 0 C55 6.6 55 13.2 55 20 C44.44 20 33.88 20 23 20 C23 23.3 23 26.6 23 30 C32.24 30 41.48 30 51 30 C51 35.94 51 41.88 51 48 C41.76 48 32.52 48 23 48 C23 58.23 23 68.46 23 79 C15.41 79 7.82 79 0 79 C0 52.93 0 26.86 0 0 Z " fill="#333132" transform="translate(344,25)"/>
<path d="M0 0 C18.15 0 36.3 0 55 0 C55 6.6 55 13.2 55 20 C44.44 20 33.88 20 23 20 C23 23.3 23 26.6 23 30 C32.24 30 41.48 30 51 30 C51 35.94 51 41.88 51 48 C41.76 48 32.52 48 23 48 C23 58.23 23 68.46 23 79 C15.41 79 7.82 79 0 79 C0 52.93 0 26.86 0 0 Z " fill="#333132" transform="translate(285,25)"/>
<path d="M0 0 C0 4.62 0 9.24 0 14 C-1.918125 14.53625 -3.83625 15.0725 -5.8125 15.625 C-19.51204824 19.88377261 -29.6294827 26.62999754 -36.6796875 39.32421875 C-42.42603291 50.96991877 -44.2586289 63.65093445 -40.875 76.375 C-36.20979277 89.09632897 -28.72449411 98.97457601 -16.83984375 105.71484375 C-11.39964975 108.17677474 -5.77438362 109.52809829 0 111 C0 115.62 0 120.24 0 125 C-5.63623376 125 -8.58847896 124.77841037 -13.6875 123.125 C-14.78449219 122.77695313 -15.88148437 122.42890625 -17.01171875 122.0703125 C-20 121 -20 121 -21.93457031 119.92163086 C-28.48132185 117.00035579 -37.97265727 121.20121262 -44.4375 123.0625 C-46.39392417 123.61802785 -48.35092775 124.17152056 -50.30859375 124.72265625 C-51.16251709 124.96765869 -52.01644043 125.21266113 -52.89624023 125.46508789 C-55 126 -55 126 -57 126 C-55.85163463 118.2185391 -53.90731644 110.78675824 -51.58911133 103.28369141 C-49.50986219 96.24776332 -50.76953701 92.29440792 -53.5 85.5 C-58.86731545 72.14412201 -59.42323914 54.45253848 -54.3203125 40.91015625 C-46.25826474 23.14025808 -35.28938901 10.55371135 -17 3 C-11.06889814 0.98520551 -6.32667825 0 0 0 Z " fill="#333132" transform="translate(59,2)"/>
<path d="M0 0 C23.43 0 46.86 0 71 0 C71 6.27 71 12.54 71 19 C63.08 19 55.16 19 47 19 C47 38.8 47 58.6 47 79 C39.41 79 31.82 79 24 79 C24 59.2 24 39.4 24 19 C16.08 19 8.16 19 0 19 C0 12.73 0 6.46 0 0 Z " fill="#333132" transform="translate(141,24)"/>
<path d="M0 0 C16.30081051 0.72988704 30.47515952 8.43462659 41.64453125 20.13671875 C53.29621598 34.30037531 58.57226906 51.74539928 57 70 C54.81178588 85.01862079 48.81494003 97.32925917 38 108 C36.93265625 109.0828125 36.93265625 109.0828125 35.84375 110.1875 C26.03009784 119.57447163 13.52921387 125 0 125 C0 120.38 0 115.76 0 111 C1.959375 110.443125 3.91875 109.88625 5.9375 109.3125 C18.75835107 105.32595151 29.07107929 98.62205728 35.71875 86.65625 C42.49225317 72.61362148 43.80478625 59.95422238 39 45 C33.399763 32.19709831 24.86461046 23.05138101 11.8125 17.6875 C7.92401167 16.25619229 4.00850208 15.04569619 0 14 C0 9.38 0 4.76 0 0 Z " fill="#333132" transform="translate(71,2)"/>
<path d="M0 0 C18.48 0 36.96 0 56 0 C56 4.95 56 9.9 56 15 C49.73 15 43.46 15 37 15 C37 30.51 37 46.02 37 62 C30.73 62 24.46 62 18 62 C18 46.49 18 30.98 18 15 C12.06 15 6.12 15 0 15 C0 10.05 0 5.1 0 0 Z " fill="#333132" transform="translate(36,35)"/>
</svg>
